<svg xmlns="http://www.w3.org/2000/svg" width="1200" height="310" viewBox="0 0 1200 310" role="img" aria-labelledby="t d">
<title id="t">Bangla Sketch system overview</title><desc id="d">Conceptual flow: Next.js user interface communicates with Django REST API, which connects to PostgreSQL, JWT-based access control, and Cloudinary media service.</desc>
<defs>
 <linearGradient id="bg" x2="1" y2="1"><stop stop-color="#0B1525"/><stop offset="1" stop-color="#101F30"/></linearGradient>
 <marker id="arrow" markerWidth="9" markerHeight="9" refX="7" refY="4.5" orient="auto"><path d="M0 0L9 4.5L0 9z" fill="#62DBCC"/></marker>
</defs>
<rect x="1" y="1" width="1198" height="308" rx="18" fill="url(#bg)" stroke="#234257"/>
<text x="42" y="43" font-family="DejaVu Sans,Arial,sans-serif" font-size="16" font-weight="bold" letter-spacing="2" fill="#70E2C8">BANGLA SKETCH / SYSTEM MAP</text>
<text x="42" y="67" font-family="DejaVu Sans,Arial,sans-serif" font-size="12" fill="#8DA8BE">High-level illustration based on your resume, not an audited production topology.</text>
<g stroke="#366076" stroke-width="1.6" fill="#13283B">
 <rect x="52" y="114" width="231" height="113" rx="12"/>
 <rect x="365" y="114" width="240" height="113" rx="12"/>
 <rect x="720" y="95" width="194" height="66" rx="11"/>
 <rect x="720" y="181" width="194" height="66" rx="11"/>
 <rect x="972" y="127" width="179" height="82" rx="11"/>
</g>
<g fill="#F0F7FC" font-family="DejaVu Sans,Arial,sans-serif" text-anchor="middle">
<text x="168" y="154" font-size="19" font-weight="bold">Next.js</text><text x="168" y="181" font-size="13" fill="#9CB4CB">Client interface</text><text x="168" y="202" font-size="11" fill="#6CCCB8">FRONTEND</text>
<text x="485" y="154" font-size="19" font-weight="bold">Django REST</text><text x="485" y="181" font-size="13" fill="#9CB4CB">API + business logic</text><text x="485" y="202" font-size="11" fill="#6CCCB8">BACKEND</text>
<text x="817" y="123" font-size="16" font-weight="bold">PostgreSQL</text><text x="817" y="143" font-size="11" fill="#9CB4CB">Project data</text>
<text x="817" y="208" font-size="16" font-weight="bold">JWT / RBAC</text><text x="817" y="229" font-size="11" fill="#9CB4CB">Access control</text>
<text x="1061" y="161" font-size="16" font-weight="bold">Cloudinary</text><text x="1061" y="182" font-size="11" fill="#9CB4CB">Media delivery</text>
</g>
<g fill="none" stroke="#62DBCC" stroke-width="2.2" marker-end="url(#arrow)"><path d="M283 170H359"/><path d="M605 155H714V128H714"/><path d="M605 189H714V214H714"/><path d="M914 128H945V168H966"/></g>
<g fill="#62DBCC" font-family="DejaVu Sans,Arial,sans-serif" font-size="11"><text x="297" y="158">HTTP / API</text><text x="631" y="113">DATA</text><text x="628" y="236">AUTH</text><text x="942" y="112">MEDIA</text></g>
</svg>
